<?xml version="1.0" encoding="UTF-8" standalone="no"?>
<!-- Created with Inkscape (http://www.inkscape.org/) -->

<svg
   xmlns:dc="http://purl.org/dc/elements/1.1/"
   xmlns:cc="http://creativecommons.org/ns#"
   xmlns:rdf="http://www.w3.org/1999/02/22-rdf-syntax-ns#"
   xmlns:svg="http://www.w3.org/2000/svg"
   xmlns="http://www.w3.org/2000/svg"
   xmlns:sodipodi="http://sodipodi.sourceforge.net/DTD/sodipodi-0.dtd"
   xmlns:inkscape="http://www.inkscape.org/namespaces/inkscape"
   width="264.58334mm"
   height="264.58334mm"
   viewBox="0 0 264.58334 264.58334"
   version="1.1"
   id="svg1384"
   inkscape:version="0.92.4 5da689c313, 2019-01-14"
   sodipodi:docname="penguin.svg"
   inkscape:export-filename="/home/nabil/penguin.svg.png"
   inkscape:export-xdpi="96"
   inkscape:export-ydpi="96">
  <defs
     id="defs1378" />
  <sodipodi:namedview
     id="base"
     pagecolor="#ffffff"
     bordercolor="#666666"
     borderopacity="1.0"
     inkscape:pageopacity="0.0"
     inkscape:pageshadow="2"
     inkscape:zoom="0.50000003"
     inkscape:cx="571.45993"
     inkscape:cy="451.43983"
     inkscape:document-units="mm"
     inkscape:current-layer="layer5"
     showgrid="false"
     showborder="false"
     inkscape:pagecheckerboard="true"
     inkscape:window-width="1396"
     inkscape:window-height="943"
     inkscape:window-x="2059"
     inkscape:window-y="58"
     inkscape:window-maximized="0"
     fit-margin-top="0"
     fit-margin-left="0"
     fit-margin-right="0"
     fit-margin-bottom="0" />
  <metadata
     id="metadata1381">
    <rdf:RDF>
      <cc:Work
         rdf:about="">
        <dc:format>image/svg+xml</dc:format>
        <dc:type
           rdf:resource="http://purl.org/dc/dcmitype/StillImage" />
        <dc:title></dc:title>
      </cc:Work>
    </rdf:RDF>
  </metadata>
  <g
     inkscape:groupmode="layer"
     id="layer5"
     inkscape:label="MAIN"
     transform="translate(-0.19732672,-31.690245)">
    <g
       id="g2023"
       style="opacity:1;fill:#0b1728;fill-opacity:1"
       transform="matrix(4.0953783,0,0,4.1291986,-0.61080077,-927.09881)">
      <path
         sodipodi:nodetypes="cssscsssc"
         inkscape:connector-curvature="0"
         id="path1996"
         d="m 50.670588,249.04594 c 1.44e-4,-0.002 -0.0072,0.008 0.243182,0.079 0.2504,0.071 0.594859,0.18006 0.971242,0.33024 0.376382,0.15017 0.773058,0.38694 1.186163,0.55374 0.366397,0.14793 0.70258,0.53897 0.958104,0.8664 -0.115573,-0.0558 -0.480034,-0.36517 -0.840671,-0.58855 -0.335313,-0.20769 -0.651231,-0.39157 -1.063403,-0.57426 -0.445192,-0.19732 -0.96737,-0.28818 -1.243364,-0.44434 -0.275994,-0.15617 -0.307862,-0.22269 -0.211253,-0.2222 z"
         style="opacity:0.97000002;fill:#0b1728;fill-opacity:1;stroke:none;stroke-width:0.0206375;stroke-linecap:butt;stroke-linejoin:round;stroke-miterlimit:4;stroke-dasharray:none;stroke-dashoffset:0.10015748;stroke-opacity:1;paint-order:normal" />
      <path
         sodipodi:nodetypes="csssccscscc"
         inkscape:connector-curvature="0"
         id="path1994"
         d="m 36.216275,245.18377 c -0.113642,-0.0536 -0.151371,-0.067 -0.267639,-0.075 -0.116268,-0.008 -0.220452,0.005 -0.313542,0.01 -0.09309,0.005 -0.170693,0.0139 -0.225023,0.0209 -0.05433,0.008 -0.08539,0.0136 -0.08539,0.0136 l -5e-6,1.7e-4 c -1.087453,0.22217 -0.198781,1.62534 0.257247,1.78904 0.456029,0.1637 1.718876,-0.42095 1.718876,-0.42095 0.0015,-0.22071 -0.02831,-0.40761 -0.08155,-0.56572 -0.05324,-0.15811 -0.113844,-0.23919 -0.171216,-0.29811 0,0 -1.169394,0.88265 -0.831758,-0.47365 z"
         style="opacity:0.97000002;fill:#0b1728;fill-opacity:1;stroke:none;stroke-width:0.095;stroke-linecap:butt;stroke-linejoin:round;stroke-miterlimit:4;stroke-dasharray:none;stroke-dashoffset:0.10015748;stroke-opacity:1;paint-order:normal" />
      <path
         sodipodi:nodetypes="csccccccscssccscccsccccccsccccccccscscccccccsccsssccssccccccccccccccsscccscscsccccccsccccccsccsccccsscccccccccscccscssscssccccccscccssccccsccscccccccsccssssscscsssscscccsccccscssc"
         inkscape:connector-curvature="0"
         id="path1990"
         d="m 21.828127,265.26648 c -1.653646,3.22461 -1.967839,5.54797 -2.24069,5.72987 -0.272851,0.1819 -0.173601,1.23198 -0.181901,1.62885 -0.0083,0.39685 -0.396875,0.0165 -0.520899,-0.0331 -0.12402,-0.0496 0.04961,1.2981 -0.14056,1.09966 -0.190201,-0.19844 -0.181901,0.37208 -0.181901,0.37208 0,0 -0.214972,0.80201 -0.314192,0 -0.09922,-0.80201 -0.170542,0.0177 -0.217312,0.0645 -0.04677,0.0468 -4.5369,5.61266 -5.121552,6.2207 -0.584652,0.60804 -3.3859948,5.82263 -3.3299698,6.68814 0.4447648,0.66957 0.8188278,1.02621 1.2012638,1.3738 0.382436,0.34759 0.773245,0.68614 1.172088,1.01529 0.398843,0.32915 0.805721,0.64894 1.183711,0.71314 0.320126,-0.35305 1.632098,-3.46444 1.632098,-3.46444 0,0 1.052374,-1.8475 1.555174,-1.74226 0.502801,0.10524 2.093055,-1.02899 2.093055,-1.02899 0,0 0.04677,-0.79512 0.163703,-0.98221 0.11693,-0.1871 0.374177,-0.0234 0.374177,-0.0234 0,0 0.152009,0.90037 0.152009,1.09915 0,0.19878 -0.128623,0.39756 -0.432642,0.56126 -0.304019,0.16373 -0.596345,0.0468 -0.596345,0.0468 0,0 -0.548797,0.88523 -0.81338,0.78603 -0.264584,-0.0992 -0.165365,-0.0331 -0.992188,0.46302 -0.826823,0.49609 -1.774536,5.23774 -1.774536,5.23774 0.37156,0.48398 0.808547,0.76417 1.252553,1.03395 0.444006,0.26979 0.895032,0.52917 1.352739,0.77781 0.457707,0.24864 0.922095,0.48654 1.392827,0.71337 0.470732,0.22682 0.947807,0.44256 1.430887,0.64689 0.48308,0.20432 0.972164,0.39723 1.466916,0.57838 0.494751,0.18112 0.995169,0.35052 1.832872,0.27192 0,0 0.663867,-2.78677 0.778789,-5.62204 0.03307,-2.41433 0.58895,-3.82837 0.58895,-3.82837 0,0 0.442329,-2.12476 2.029829,-4.00991 1.5875,-1.88516 3.781204,-4.16271 3.927409,-5.48184 -0.03307,-0.30593 -0.09095,-0.73587 -1.248503,-0.60358 -1.157552,0.13229 -1.686719,-2.08359 -1.455208,-2.67891 0.23151,-0.59531 1.885156,-1.52135 2.976562,-2.44739 1.091407,-0.92604 0.770639,-4.17176 0.770639,-4.17176 0.467722,-1.05238 -1.660412,-4.16273 -2.408767,-4.58368 -0.748354,-0.42096 -1.613639,-0.42096 -2.198291,-0.39756 -0.584653,0.0234 -2.666012,-0.23386 -2.619242,-1.66041 0.04677,-1.42655 -1.005601,-0.95879 -1.145918,-1.02899 -0.140316,-0.0702 -0.04677,-1.54348 0.304019,-1.98782 0.350791,-0.44433 -0.491108,-0.65481 -0.491108,-0.65481 0,0 -0.444333,-3.39098 -0.04677,-6.01022 0.397564,-2.61924 0.514494,-2.33861 0.514494,-2.33861 0,0 0.7909,-3.08007 4.52028,-5.06931 0.388905,-0.20744 0.764356,-0.38572 1.12914,-0.53828 0.364784,-0.15255 0.718901,-0.27937 1.065137,-0.38389 0.346236,-0.10452 0.684591,-0.18673 1.01785,-0.25007 0.33326,-0.0633 0.719303,-0.16567 1.686927,-0.29527 0,0 0.957909,-0.0923 1.727437,-0.14879 0.533888,-0.0234 0.593041,-0.003 1.692186,0.11417 1.099145,0.11693 1.438246,0.25725 2.747865,0.57296 1.309621,0.31571 4.063017,3.26962 4.063017,3.26962 11.751508,-0.1082 10.967712,5.7016 10.967712,5.7016 -0.427009,1.41304 -1.89843,0.95994 -2.559888,1.14184 -1.058333,0.0827 -5.83737,0.23151 -5.83737,0.23151 -1.455208,-0.42995 -4.216796,3.24112 -4.216796,3.24112 0.239149,-1.98981 1.991744,-3.17424 3.575413,-3.87387 1.631899,-0.72094 5.030383,-0.19838 5.139691,-0.13528 0.109307,0.0631 0.222171,-0.39756 0.233861,-0.91206 0.01169,-0.51449 -1.212061,-0.81971 -1.200371,-0.76121 -0.619731,-0.0234 -8.864258,-0.58121 -9.685851,-0.52561 -1.262849,-0.11692 -0.935444,-0.6782 -0.935444,-0.6782 l 11.873073,0.71304 c 0.440202,-1.86002 -7.651096,-3.57333 -7.651096,-3.57333 0,0 -3.145043,-3.32968 -6.655307,-4.04476 -0.351966,-0.0398 -0.695097,-0.0778 -1.032177,-0.11068 -0.33708,-0.0329 -0.66811,-0.0606 -0.995877,-0.0797 -0.327766,-0.019 -0.652269,-0.03 -0.976294,-0.028 l 1.972171,0.1077 1.032177,0.11068 c 0,0 1.891538,0.49251 2.734938,1.03289 0.95252,0.6103 2.695821,2.05972 2.695821,2.05972 0,0 1.188677,1.52127 -0.308032,0.7963 -1.496709,-0.72497 -2.92326,-0.53788 -2.92326,-0.53788 0,0 0.631423,2.22167 -1.707185,3.0168 -2.338609,0.79513 -2.782945,-1.52009 -2.782945,-1.52009 0,0 -0.140317,-0.65481 0.210476,-1.00561 0.35079,-0.35079 0.07016,-0.88867 -0.327406,-1.47332 -0.397563,-0.58465 -0.965833,-0.32039 -1.099145,-0.18709 -0.502801,0.50276 -1.075759,0.59503 -1.506398,1.22009 -0.893657,0.52584 -1.603951,0.88466 -2.188604,1.9838 -0.584652,1.09915 -0.795129,2.31523 -0.841899,2.71279 -0.04677,0.39756 -0.23386,1.91766 -0.09354,3.25067 0.140316,1.333 1.554107,2.69478 3.203892,3.50791 1.414951,0.69739 5.906762,-0.90024 10.536971,2.20861 2.778125,2.61277 2.166275,5.6224 2.166275,5.6224 0,0 -4.547525,0.36385 -5.705076,2.56311 0,0 -0.07589,0.1997 -0.660542,0.0594 -0.501976,-0.0576 0,-0.32742 -0.561266,-0.44434 -0.561266,-0.11692 -0.701579,0.23386 -0.724969,0.25726 -0.02339,0.0233 0.116933,0.91204 -0.04677,1.23947 -0.163703,0.32739 -1.707188,1.42652 -1.683798,2.68938 0.02339,1.26286 0.304019,1.56683 -0.07016,1.66043 -0.374177,0.0935 -0.58465,-0.21049 -1.309619,0.0702 -0.724968,0.60802 -1.005602,1.07575 -1.122533,1.73055 -0.04677,0.67821 0.327405,4.3732 -0.444337,4.86432 0,0 -3.671613,3.01675 -3.671613,3.57802 0,0.56126 0.140319,2.0112 0.187089,2.19829 0.04677,0.18709 -0.02339,0.14032 -0.304019,0.56127 -0.280633,0.42095 -1.753957,0.21046 -1.753957,0.21046 0,0 -1.317908,0.89502 -1.379778,5.02802 -0.0221,1.47664 -0.0867,4.21419 -0.177671,5.20665 0.401703,0.3535 0.922758,0.47385 1.448465,0.58142 0.525706,0.1076 1.056064,0.20242 1.784614,0.0402 0.965618,-0.40761 1.17747,-2.36706 1.17747,-2.36706 0,0 2.92326,-7.64725 3.110349,-8.0682 0.187088,-0.42095 1.028987,-2.22167 1.145918,-2.64262 0.11693,-0.42095 0.865285,-3.67162 1.590254,-4.93447 0.724968,-1.26285 1.73057,-3.20389 1.894272,-3.90547 0.163703,-0.70159 0.491108,-1.0056 0.374178,-1.44994 -0.116931,-0.44434 -0.257247,-1.02899 -0.374178,-1.37978 -0.11693,-0.35079 0.233861,-1.54353 0.748355,-1.63703 0.514494,-0.0935 1.660412,-0.74835 2.361994,-1.19269 0.701583,-0.44433 2.338609,-1.0056 3.133736,-1.1693 0.79513,-0.1637 0.74835,-0.11693 0.77174,0.49111 0.02339,0.60804 -0.374175,2.0112 -0.327405,3.13373 0.04677,1.12254 0.210475,5.63605 0.350792,6.12716 0.140316,0.4911 -0.257247,5.65943 -0.467722,6.73519 -0.210475,1.07576 -1.313209,5.67511 -1.964431,6.94567 -0.874607,1.70639 -2.828054,4.84963 -2.488721,5.16682 0.724722,-8.5e-4 1.245777,-0.1212 1.761841,-0.25397 0.516065,-0.13278 1.02714,-0.27799 1.532886,-0.43529 0.505746,-0.15731 1.006164,-0.3267 1.500915,-0.50786 0.494752,-0.18115 0.983836,-0.37406 1.466916,-0.57838 0.48308,-0.20433 0.960155,-0.42007 1.430887,-0.64689 0.470731,-0.22683 0.93512,-0.46473 1.392827,-0.71337 0.457707,-0.24864 0.908733,-0.50802 1.352739,-0.77781 0.444006,-0.26978 0.880992,-0.54997 1.310621,-0.84022 0.429628,-0.29025 0.851898,-0.59057 1.266473,-0.90061 0.414574,-0.31004 0.821452,-0.62981 1.220295,-0.95896 0.398843,-0.32915 0.789652,-0.6677 1.172088,-1.01529 0.382436,-0.34759 0.756499,-0.70423 1.121851,-1.06958 0.365352,-0.36536 0.721993,-0.73942 1.069585,-1.12186 0.347592,-0.38243 0.686134,-0.77324 1.015289,-1.17208 0.329155,-0.39885 0.648922,-0.80572 0.958963,-1.2203 0.310041,-0.41457 0.610357,-0.83684 0.900608,-1.26647 0.290251,-0.42963 0.570438,-0.86662 0.840223,-1.31062 0.269784,-0.44401 0.529166,-0.89503 0.777808,-1.35274 0.248641,-0.45771 0.486542,-0.9221 0.713364,-1.39283 0.226822,-0.47073 0.442564,-0.9478 0.64689,-1.43088 0.204325,-0.48308 0.397234,-0.97217 0.578386,-1.46692 0.181153,-0.49475 0.35055,-0.99517 0.507854,-1.50091 0.157303,-0.50575 0.302513,-1.01683 0.43529,-1.53289 0.132778,-0.51606 0.253123,-1.03712 0.360699,-1.56283 0.107575,-0.5257 0.202376,-1.05606 0.284076,-1.59073 0.0817,-0.53467 0.150284,-1.07366 0.205424,-1.61662 0.05514,-0.54296 0.09683,-1.0899 0.124743,-1.64047 0.02791,-0.55057 0.04203,-1.10478 0.04203,-1.66229 v 3e-5 c 0,-17.84027 -14.462399,-32.30267 -32.302673,-32.30267 -17.840274,0 -32.3026733,14.4624 -32.3026733,32.30267 0,0.55751 0.0141234,1.11172 0.042032,1.66229 0.0279086,0.55057 0.0696023,1.09751 0.12474302,1.64047 0.0551407,0.54296 0.12372817,1.08195 0.20542437,1.61662 0.0816962,0.53467 0.17650095,1.06503 0.28407608,1.59073 0.10757513,0.52571 0.22792063,1.04677 0.36069813,1.56283 0.1327776,0.51606 0.2779872,1.02714 0.4352906,1.53289 0.1573034,0.50574 0.3267006,1.00616 0.5078534,1.50091 0.1811527,0.49475 0.374061,0.98384 0.5783865,1.46692 0.2043256,0.48308 0.4200683,0.96015 0.6468901,1.43088 0.2268218,0.47073 0.4647225,0.93512 0.713364,1.39283 0.2486414,0.45771 0.5080236,0.90873 0.7778082,1.35274 0.2697846,0.444 0.5499716,0.88099 0.8402228,1.31062 0.2902512,0.42963 0.5905666,0.8519 0.9006078,1.26647 0.3100412,0.41458 0.6298084,0.82145 0.9589631,1.2203 0.3291548,0.39884 0.6676972,0.78965 1.0968354,1.01361 0,0 2.6050948,-4.43099 3.2365188,-5.50675 0.631424,-1.07576 5.772837,-7.24449 5.772837,-7.24449 0,0 1.61364,-1.73057 1.286235,-2.29184 -0.327405,-0.56126 1.987817,-5.79975 2.245064,-6.43118 -0.02339,-0.79512 -1.07576,-5.77635 -1.07576,-5.77635 0,0 -0.561266,-2.89988 -0.233861,-5.47235 0.327405,-2.57247 2.538416,-5.31091 2.538416,-5.31091 -2.315104,4.63021 -1.808836,4.71715 -2.10013,6.70554 -0.29113,1.98727 1.643078,8.93033 1.689848,9.57344 0.04677,0.64313 -0.201566,0.96029 -0.201566,0.96029"
         style="opacity:0.97000002;fill:#0b1728;fill-opacity:1;stroke:none;stroke-width:0.095;stroke-linecap:butt;stroke-linejoin:round;stroke-miterlimit:4;stroke-dasharray:none;stroke-dashoffset:0.10015748;stroke-opacity:1;paint-order:normal" />
    </g>
  </g>
</svg>
